<svg xmlns="http://www.w3.org/2000/svg" viewBox="0 0 520 120" fill="none"><defs><linearGradient id="g1" x1="0" y1="0" x2="520" y2="120" gradientUnits="userSpaceOnUse"><stop stop-color="#6FF6FF"/><stop offset="1" stop-color="#F2C300"/></linearGradient></defs><g stroke="url(#g1)" stroke-width="4.5" stroke-linecap="round" stroke-linejoin="round" opacity="0.95"><g transform="translate(22 22)"><path d="M14 14l20 20"/><path d="M7 27l20-20 12 12-20 20H7z"/><path d="M38 38l18 18"/><path d="M56 56l8 8"/></g><g transform="translate(122 20)"><path d="M10 60l18-18 30-30"/><path d="M52 8c10 0 18 8 18 18 0 4-1 7-3 10l-10-10-13 13 10 10c-3 2-6 3-10 3-10 0-18-8-18-18 0-4 1-7 3-10"/><path d="M6 64l10 10"/></g><g transform="translate(238 16)"><path d="M12 70l20-20"/><path d="M32 50L78 4"/><path d="M72 10l20 20"/><path d="M62 20l20 20"/><path d="M4 78l16 16 20-20-16-16z"/></g><g transform="translate(350 20)"><path d="M12 76h76"/><path d="M20 68v16"/><path d="M36 68v16"/><path d="M52 68v16"/><path d="M68 68v16"/><path d="M84 68v16"/><path d="M14 48l22-22 34 34-22 22z"/><path d="M30 32l34 34"/></g></g></svg>